<?xml version="1.0" encoding="utf-8"?>
<!-- Generator: Adobe Illustrator 27.5.0, SVG Export Plug-In . SVG Version: 6.00 Build 0)  -->
<svg version="1.1" xmlns="http://www.w3.org/2000/svg" xmlns:xlink="http://www.w3.org/1999/xlink" x="0px" y="0px"
	 viewBox="0 0 500 500" style="enable-background:new 0 0 500 500;" xml:space="preserve">
<g id="BACKGROUND">
	<linearGradient id="SVGID_1_" gradientUnits="userSpaceOnUse" x1="17.3274" y1="14.6687" x2="483.9945" y2="486.6683">
		<stop  offset="0" style="stop-color:#FFFFFF"/>
		<stop  offset="1" style="stop-color:#E6E7E8"/>
	</linearGradient>
	<rect style="fill:url(#SVGID_1_);" width="500" height="500"/>
</g>
<g id="OBJECTS">
	<g>
		<g>
			
				<radialGradient id="SVGID_00000021083335610021290020000015371128205093646217_" cx="207.2054" cy="280.4618" r="53.0519" gradientTransform="matrix(2.0915 0 0 0.3673 -183.3701 317.9734)" gradientUnits="userSpaceOnUse">
				<stop  offset="0.005" style="stop-color:#000000"/>
				<stop  offset="1" style="stop-color:#FFFFFF;stop-opacity:0"/>
			</radialGradient>
			<path style="opacity:0.26;fill:url(#SVGID_00000021083335610021290020000015371128205093646217_);" d="M360.952,420.987
				c0,10.763-49.675,19.487-110.952,19.487s-110.952-8.725-110.952-19.487c0-10.762,49.675-19.487,110.952-19.487
				S360.952,410.224,360.952,420.987z"/>
		</g>
		<g>
			<g>
				<g>
					<polygon style="fill:#FFFFFF;" points="250.341,384.868 249.647,384.868 250,384.72 					"/>
				</g>
				<g>
					<g>
						<path style="fill:#E82438;" d="M368.603,220.867c-0.155,0.93-0.324,1.874-0.493,2.818H131.928
							c-0.169-0.944-0.338-1.888-0.493-2.818H368.603z"/>
					</g>
					<g>
						<path style="fill:#E82438;" d="M354.373,274.405c-0.366,0.944-0.747,1.874-1.127,2.818H146.971
							c-0.38-0.944-0.761-1.874-1.127-2.818H354.373z"/>
					</g>
				</g>
				<g>
					<g>
						<path style="fill:#EF2138;" d="M141.459,165.539c0.056,4.297,0.493,33.546,2.86,45.691l-1.381,0.268
							c-2.578-13.173-2.888-46.141-2.888-46.48l-0.014-0.535l19.513-5.777l0.395,1.353L141.459,165.539z"/>
					</g>
					<g>
						<path style="fill:#EF2138;" d="M359.219,164.482l-0.014,0.535c0,0.338-0.324,33.306-2.888,46.48l-1.381-0.268
							c2.367-12.145,2.804-41.394,2.86-45.691l-17.851-5.298l0.395-1.353L359.219,164.482z"/>
					</g>
					<path style="fill:none;stroke:#EF2138;stroke-width:1.4089;stroke-miterlimit:10;" d="M336.111,284.683
						c0,0-9.959,23.587-30.409,47.198c-13.992,16.155-33.868,33.555-55.708,42.531l0,0c-21.84-8.976-41.716-26.376-55.708-42.531
						c-20.45-23.611-30.409-47.198-30.409-47.198"/>
				</g>
				<g>
					<path style="fill:#EF2138;" d="M253.037,138.394c0.216-1.911,2.889-3.481,6.506-4.777c-0.216-2.514-0.364-12.228-1.684-17.369
						c-1.649-1.831-5.13-2.787-5.13-2.787c1.911,0.182,3.117,0.455,3.867,0.682c-1.024-0.944-2.753-1.706-5.574-1.115
						c-4.686,1.001-4.823,4.982-4.686,7.166c0.205,3.629,0.535,9.168,0.717,11.409c0.262,3.208,0.318,9.429,2.855,11.34
						c1.74,1.308,3.879,1.49,5.073,1.308C253.447,142.273,252.867,140.055,253.037,138.394z M274.012,122.88
						c0.569-3.503-3.515-6.006-5.096-6.529c-1.991-0.66-6.438-0.819-7.848,3.583c-0.136,4.061,0.398,10.692,0.819,12.91
						c1.138-0.353,1.82-0.523,3.026-0.842c3.071-0.773,5.778-1.456,8.417-1.638c0-0.921,0.057-3.515,0.023-5.699
						c0-2.901-1.945-4.914-2.184-5.153C272.783,120.605,273.602,121.867,274.012,122.88z M253.037,138.394
						c0.216-1.911,2.889-3.481,6.506-4.777c-0.216-2.514-0.364-12.228-1.684-17.369c-1.649-1.831-5.13-2.787-5.13-2.787
						c1.911,0.182,3.117,0.455,3.867,0.682c-1.024-0.944-2.753-1.706-5.574-1.115c-4.686,1.001-4.823,4.982-4.686,7.166
						c0.205,3.629,0.535,9.168,0.717,11.409c0.262,3.208,0.318,9.429,2.855,11.34c1.74,1.308,3.879,1.49,5.073,1.308
						C253.447,142.273,252.867,140.055,253.037,138.394z M274.012,122.88c0.569-3.503-3.515-6.006-5.096-6.529
						c-1.991-0.66-6.438-0.819-7.848,3.583c-0.136,4.061,0.398,10.692,0.819,12.91c1.138-0.353,1.82-0.523,3.026-0.842
						c3.071-0.773,5.778-1.456,8.417-1.638c0-0.921,0.057-3.515,0.023-5.699c0-2.901-1.945-4.914-2.184-5.153
						C272.783,120.605,273.602,121.867,274.012,122.88z M338.198,124.665h-5.505V109.39c0-2.946-2.389-5.335-5.335-5.335h-2.593
						c-2.946,0-5.335,2.389-5.335,5.335v15.276h-0.466v-22.01c0-2.946-2.389-5.335-5.335-5.335h-2.593
						c-2.946,0-5.335,2.389-5.335,5.335v22.01h-0.466V96.468c0-2.946-2.389-5.335-5.335-5.335h-2.593
						c-2.946,0-5.335,2.389-5.335,5.335v28.197H279.13c-0.023-0.046-0.046-0.068-0.046-0.068c-1.934-6.279-4.243-9.293-8.542-11.329
						c-5.107-2.423-9.498,0.057-9.498,0.057s-2.616-4.231-8.121-4.607c-5.494-0.375-9.202,3.811-9.202,3.811
						s-3.879-2.639-8.19-2.195c-4.322,0.444-7.575,4.14-7.575,4.14s-5.903-1.717-10.192-0.102c-3.276,1.24-4.948,4.868-5.175,6.961
						c-0.091,0.819-0.205,2.002-0.353,3.333h-3.981V96.468c0-2.946-2.389-5.335-5.335-5.335h-2.593
						c-2.946,0-5.335,2.389-5.335,5.335v28.197h-0.466v-22.01c0-2.946-2.389-5.335-5.335-5.335h-2.593
						c-2.946,0-5.335,2.389-5.335,5.335v22.01h-0.466V109.39c0-2.946-2.389-5.335-5.335-5.335h-2.593
						c-2.946,0-5.335,2.389-5.335,5.335v15.276h-5.278c-1.012,0-1.843,0.83-1.843,1.843v10.157c0,1.035,0.83,1.854,1.843,1.854
						h5.278v15.276c0,2.946,2.389,5.335,5.335,5.335h2.593c2.946,0,5.335-2.389,5.335-5.335V138.52h0.466v22.021
						c0,2.946,2.389,5.335,5.335,5.335h2.593c2.946,0,5.335-2.389,5.335-5.335V138.52h0.466v28.197c0,2.946,2.389,5.335,5.335,5.335
						h2.593c2.946,0,5.335-2.389,5.335-5.335V138.52h2.775c0,4.572,0.159,15.697,1.513,24.808c1.763,11.784,7.666,14.98,7.666,14.98
						l-1.797,31.371h1.911l1.809-32.019c-1.638-1.149-3.094-2.571-4.106-4.368c-6.279-11.193-4.925-34.772-4.925-34.772h2.366
						c0,0-0.114,1.899-0.102,4.857c0.717-0.819,1.524-1.319,2.127-1.592c-0.171-0.432-0.318-0.887-0.478-1.376
						c-2.127-6.654-2.548-15.674-2.377-17.528c0.182-1.877,1.16-5.858,5.687-6.916c4.527-1.069,8.827,0.535,8.827,0.535
						s2.229-3.742,7.154-4.14c4.914-0.398,8.338,2.935,8.338,2.935c1.843-3.685,6.119-4.8,9.736-4.345
						c5.721,0.705,5.847,6.336,5.847,6.336s1.774-3.549,6.518-3.174c3.583,0.284,9.316,2.844,10.26,10.556h-1.695
						c0,2.343-0.137,4.709-0.159,5.596c1.035,0,1.957,0.114,2.673,0.375c1.319,0.5,2.423,1.501,3.344,2.764
						c0.898,1.274,1.615,2.809,2.184,4.356c0,0,3.913,9.407,4.709,12.876c0.466,2.002,1.501,4.425,1.001,6.893
						c-0.33,1.786-1.536,3.503-3.64,6.085c-2.946,3.56-6.495,7.553-10.066,10.703c-5.983,5.323-9.043,7.609-9.043,7.609
						l1.638,27.754h2.184l-1.763-27.14c10.044-7.177,18.882-17.994,19.701-18.95c1.706-1.99,4.038-5.938,2.229-11.431
						c-1.422-4.334-2.696-8.645-4.197-12.421c-0.171-0.41-0.33-0.819-0.5-1.217h6.37v28.197c0,2.946,2.389,5.335,5.335,5.335h2.593
						c2.946,0,5.335-2.389,5.335-5.335V138.52h0.466v22.021c0,2.946,2.389,5.335,5.335,5.335h2.593c2.946,0,5.335-2.389,5.335-5.335
						V138.52h0.466v15.276c0,2.946,2.389,5.335,5.335,5.335h2.593c2.946,0,5.335-2.389,5.335-5.335V138.52h5.505
						c1.024,0,1.843-0.819,1.843-1.854v-10.157C340.04,125.496,339.221,124.665,338.198,124.665z M167.535,127.145h-5.63
						c0,0,0-0.023,0-0.08c0-0.296,0.091-1.149,1.262-1.149h4.368V127.145z M171.016,110.959l-1.297,13.706v-14.286
						c0-4.379,4.607-4.538,4.607-4.538C171.118,106.773,171.016,110.959,171.016,110.959z M184.779,104.18l-1.297,20.485V103.6
						c0-4.391,4.607-4.538,4.607-4.538C184.881,99.994,184.779,104.18,184.779,104.18z M198.314,97.89l-1.297,26.776V97.321
						c0-4.39,4.607-4.538,4.607-4.538C198.406,93.715,198.314,97.89,198.314,97.89z M208.256,127.145v-1.229h3.867
						c0.011,0.353,0.068,1.229,0.068,1.229H208.256z M291.972,127.145h-15.174c0,0,0.057-0.876,0.068-1.229h15.105V127.145z
						 M295.293,97.89l-1.297,26.776V97.321c0-4.39,4.607-4.538,4.607-4.538C295.384,93.715,295.293,97.89,295.293,97.89z
						 M308.818,104.18l-1.285,20.485V103.6c0-4.391,4.607-4.538,4.607-4.538C308.92,99.994,308.818,104.18,308.818,104.18z
						 M322.49,110.959l-1.297,13.706v-14.286c0-4.379,4.607-4.538,4.607-4.538C322.581,106.773,322.49,110.959,322.49,110.959z
						 M338.323,127.145h-5.63v-1.229h4.368c1.172,0,1.263,0.853,1.263,1.149C338.323,127.122,338.323,127.145,338.323,127.145z
						 M274.012,122.88c0.569-3.503-3.515-6.006-5.096-6.529c-1.991-0.66-6.438-0.819-7.848,3.583
						c-0.136,4.061,0.398,10.692,0.819,12.91c1.138-0.353,1.82-0.523,3.026-0.842c3.071-0.773,5.778-1.456,8.417-1.638
						c0-0.921,0.057-3.515,0.023-5.699c0-2.901-1.945-4.914-2.184-5.153C272.783,120.605,273.602,121.867,274.012,122.88z
						 M253.037,138.394c0.216-1.911,2.889-3.481,6.506-4.777c-0.216-2.514-0.364-12.228-1.684-17.369
						c-1.649-1.831-5.13-2.787-5.13-2.787c1.911,0.182,3.117,0.455,3.867,0.682c-1.024-0.944-2.753-1.706-5.574-1.115
						c-4.686,1.001-4.823,4.982-4.686,7.166c0.205,3.629,0.535,9.168,0.717,11.409c0.262,3.208,0.318,9.429,2.855,11.34
						c1.74,1.308,3.879,1.49,5.073,1.308C253.447,142.273,252.867,140.055,253.037,138.394z M274.012,122.88
						c0.569-3.503-3.515-6.006-5.096-6.529c-1.991-0.66-6.438-0.819-7.848,3.583c-0.136,4.061,0.398,10.692,0.819,12.91
						c1.138-0.353,1.82-0.523,3.026-0.842c3.071-0.773,5.778-1.456,8.417-1.638c0-0.921,0.057-3.515,0.023-5.699
						c0-2.901-1.945-4.914-2.184-5.153C272.783,120.605,273.602,121.867,274.012,122.88z M253.037,138.394
						c0.216-1.911,2.889-3.481,6.506-4.777c-0.216-2.514-0.364-12.228-1.684-17.369c-1.649-1.831-5.13-2.787-5.13-2.787
						c1.911,0.182,3.117,0.455,3.867,0.682c-1.024-0.944-2.753-1.706-5.574-1.115c-4.686,1.001-4.823,4.982-4.686,7.166
						c0.205,3.629,0.535,9.168,0.717,11.409c0.262,3.208,0.318,9.429,2.855,11.34c1.74,1.308,3.879,1.49,5.073,1.308
						C253.447,142.273,252.867,140.055,253.037,138.394z M277.162,132.707c-1.524-0.796-6.119-0.193-10.692,0.887
						c2.684,2.354,2.718,5.335,2.718,5.46c-0.182-0.444-0.398-0.853-0.637-1.217c-1.661-2.559-4.937-3.572-7.826-2.616
						c-0.955,0.319-1.831,0.637-2.582,0.956c-2.025,0.83-3.174,2.127-3.026,3.185c0.023,0.102,0.034,0.182,0.057,0.284
						c0.455,0.762,1.49,1.558,3.685,2.025c5.073,1.115,8.338-1.035,8.338-1.035s-2.639,2.582-8.372,1.729
						c-1.536-0.239-2.559-0.683-3.253-1.172c1.695,4.857,6.847,6.233,11.784,6.04c2.389-0.091,5.926-1.308,7.757-2.855
						c1.16-0.967,2.218-2.241,2.753-3.822c0,0-0.08,2.718-1.922,4.868c1.865-0.182,2.923-0.887,3.06-0.99
						c-0.102,0.239-2.082,4.083-12.216,4.425c-2.059,0.068-3.833-0.159-5.38-0.569c-15.344,2.855-18.483,19.871-18.483,19.871
						c0.193-14.514,11.249-20.065,14.775-21.464c-0.353-0.216-0.694-0.455-1.001-0.717c0,0-0.853-0.728-1.206-1.115
						c0,0-5.221,2.104-8.485-2.684c-0.41,0.489-1.251,1.206-2.946,1.672c-2.787,0.762-4.846-0.546-4.846-0.546
						c4.527,1.024,6.904-2.673,6.904-2.673h0.011c-0.25-0.557-0.489-1.137-0.682-1.809c-1.319-4.277-1.661-16.231-1.74-20.178
						c-1.968-1.911-4.573-2.639-4.573-2.639c2.639,0.182,4.152,1.081,4.482,1.297c-0.501-0.489-3.913-3.503-7.757-2.696
						c-0.034,0.011-0.08,0.011-0.125,0.023c-3.117,0.694-5.164,3.662-4.902,6.847c0.307,3.731,0.876,10.169,1.365,13.456
						c0.717,4.777,1.57,8.986,5.733,10.681c3.947,1.581,8.36-1.809,8.804-2.161c-0.262,0.444-3.253,5.13-8.77,4.186
						c-2.07-0.353-4.106-1.615-5.539-4.015c-0.489,0.444-1.262,0.933-2.536,1.285c-2.787,0.762-4.846-0.546-4.846-0.546
						c3.594,0.819,5.847-1.365,6.609-2.298c-0.159-0.353-0.296-0.705-0.421-1.103c-1.149-3.606-2.548-17.3-2.9-20.906
						c-2.138-0.99-4.925-1.126-4.925-1.126c1.626-0.591,4.55,0.171,4.811,0.239c-0.387-0.205-4.777-2.411-8.77-0.375
						c-4.163,2.127-2.946,9.6-2.252,13.592c0.842,4.925,2.559,12.535,6.552,13.956c3.788,1.342,8.167-1.297,8.611-1.558
						c-0.216,0.364-2.593,4.095-7.314,3.788c-2.855-0.182-5.266-1.24-7.257-6.04c-2.298,1.888-2.309,5.221-2.309,5.312l-0.011-0.046
						v0.08c1.433-1.513,3.401-2.025,3.64-2.07c-3.447,2.07-3.139,8.508-3.117,8.838c0.683,6.063,2.082,12.614,4.857,17.403
						c3.424,5.915,14.173,9.873,14.173,9.873s-3.117-0.193-6.791-1.365l-1.945,18.62l-0.159-19.382
						c-0.387-0.159-0.773-0.33-1.16-0.512l-2.343,30.393h42.939l-2.491-26.912c-1.354,0.353-5.846,0.626-8.019,0.773l-0.944,22.51
						l-1.57-22.351c-2.741,0.114-5.255,0.068-6.313-0.102c1.865-0.125,5.039-0.501,8.792-1.501
						c-6.847,0.637-13.206,0.102-13.206,0.102c10.806-0.751,17.414-1.649,21.054-2.992c2.582-0.955,5.005-2.696,7.45-4.595
						c10.271-8.053,15.958-16.243,16.47-17.824C287.706,153.887,280.916,134.709,277.162,132.707z M241.754,170.266
						c0,0-1.399-5.175,0.318-10.442c-0.318-1.683-1.194-3.037-1.297-3.208c0.762,0.466,1.433,1.479,1.752,2.002
						c0.819-1.934,2.104-3.844,4.095-5.437C246.053,153.83,241.31,159.505,241.754,170.266z M269.223,149.177
						c0.296,0.205,5.676,3.924,10.487,3.014C279.71,152.192,272.567,155.388,269.223,149.177z M274.012,122.88
						c0.569-3.503-3.515-6.006-5.096-6.529c-1.991-0.66-6.438-0.819-7.848,3.583c-0.136,4.061,0.398,10.692,0.819,12.91
						c1.138-0.353,1.82-0.523,3.026-0.842c3.071-0.773,5.778-1.456,8.417-1.638c0-0.921,0.057-3.515,0.023-5.699
						c0-2.901-1.945-4.914-2.184-5.153C272.783,120.605,273.602,121.867,274.012,122.88z M253.037,138.394
						c0.216-1.911,2.889-3.481,6.506-4.777c-0.216-2.514-0.364-12.228-1.684-17.369c-1.649-1.831-5.13-2.787-5.13-2.787
						c1.911,0.182,3.117,0.455,3.867,0.682c-1.024-0.944-2.753-1.706-5.574-1.115c-4.686,1.001-4.823,4.982-4.686,7.166
						c0.205,3.629,0.535,9.168,0.717,11.409c0.262,3.208,0.318,9.429,2.855,11.34c1.74,1.308,3.879,1.49,5.073,1.308
						C253.447,142.273,252.867,140.055,253.037,138.394z"/>
					<g>
						
							<linearGradient id="SVGID_00000090998864592643788680000003631627493058310311_" gradientUnits="userSpaceOnUse" x1="160.433" y1="129.6681" x2="364.2557" y2="332.3889">
							<stop  offset="0" style="stop-color:#FFFFFF"/>
							<stop  offset="1" style="stop-color:#E6E7E8"/>
						</linearGradient>
						<path style="fill:url(#SVGID_00000090998864592643788680000003631627493058310311_);" d="M267.949,209.678h-2.389l0.569,6.131
							h2.184L267.949,209.678z M220.324,209.678l-0.353,6.131h2.173l0.478-6.131H220.324z"/>
					</g>
				</g>
				<g>
					<polygon style="fill:#EF2138;" points="249.647,384.868 250,384.72 250.341,384.868 					"/>
					<path style="fill:#EF2138;" d="M328.37,281.224l9.134,6.62c-19.121,40.652-48.523,70.988-87.504,90.177
						c-38.98-19.189-68.361-49.502-87.481-90.12l9.225-6.677H148.54l0.409,0.978c20.576,48.865,53.847,84.547,98.856,106.044
						l2.195,1.047l2.195-1.047c45.009-21.498,78.256-57.168,98.844-106.044l0.409-0.978H328.37z M343.51,292.075
						c-1.274,2.718-2.605,5.425-4.004,8.076c-1.388,2.673-2.844,5.301-4.345,7.917c-1.501,2.605-3.06,5.175-4.664,7.723
						c-1.615,2.536-3.287,5.05-5.005,7.518c-1.729,2.457-3.481,4.914-5.312,7.302c-1.809,2.411-3.708,4.743-5.619,7.086
						l-2.912,3.446l-3.014,3.378c-0.99,1.137-2.036,2.207-3.071,3.31c-1.047,1.092-2.07,2.195-3.151,3.242l-3.23,3.173l-3.333,3.06
						c-1.092,1.035-2.263,2.002-3.401,2.98c-1.16,0.978-2.275,1.991-3.469,2.912l-3.538,2.821c-1.194,0.933-2.423,1.797-3.64,2.696
						c-2.4,1.843-4.959,3.446-7.45,5.153l-3.844,2.389l-1.934,1.183l-1.979,1.103l-3.958,2.207l-4.049,2.036l-2.036,1.001
						l-2.07,0.921l-4.14,1.854L250,386.711l-0.353-0.148l-4.152-1.843l-2.07-0.921l-2.025-1.012l-4.049-2.036l-3.958-2.207
						l-1.979-1.103l-1.934-1.183l-3.856-2.377c-2.48-1.718-5.039-3.321-7.439-5.164c-1.217-0.899-2.446-1.763-3.64-2.696
						l-3.538-2.821c-1.194-0.921-2.309-1.934-3.469-2.912c-1.138-0.978-2.309-1.945-3.401-2.98l-3.333-3.06l-3.23-3.173
						c-1.08-1.047-2.104-2.15-3.151-3.242c-1.035-1.092-2.093-2.173-3.083-3.31l-3.003-3.378l-2.923-3.446
						c-1.9-2.332-3.799-4.675-5.608-7.086c-1.831-2.389-3.583-4.834-5.312-7.302c-1.729-2.468-3.389-4.982-5.016-7.518
						c-1.592-2.548-3.151-5.118-4.664-7.723c-1.49-2.616-2.957-5.244-4.334-7.905c-1.411-2.662-2.741-5.357-4.015-8.087
						c-1.263-2.719-2.491-5.471-3.572-8.269c1.16,2.775,2.445,5.483,3.776,8.178c1.342,2.684,2.741,5.346,4.197,7.962
						c1.456,2.628,2.98,5.21,4.527,7.78c1.57,2.559,3.185,5.084,4.834,7.587c1.672,2.491,3.355,4.971,5.107,7.405
						c1.752,2.423,3.526,4.834,5.391,7.189c1.82,2.377,3.742,4.675,5.676,6.961l2.946,3.389l3.037,3.31
						c0.99,1.115,2.059,2.172,3.094,3.242c1.047,1.069,2.082,2.161,3.174,3.185l3.219,3.117l3.321,3.014
						c1.092,1.024,2.252,1.979,3.39,2.946c1.149,0.956,2.252,1.968,3.446,2.866l3.515,2.775c1.183,0.921,2.411,1.774,3.617,2.662
						c2.377,1.809,4.925,3.378,7.393,5.062l3.822,2.343l1.911,1.16l1.968,1.081l3.924,2.161l4.004,1.991l2.013,0.99l2.047,0.899
						L250,384.72l3.742-1.661l2.047-0.899l2.013-0.99l4.015-1.991l3.924-2.161l1.956-1.081l1.911-1.16l3.822-2.343
						c2.468-1.683,5.016-3.253,7.393-5.062c1.206-0.887,2.434-1.74,3.617-2.662l3.515-2.775c1.194-0.899,2.298-1.911,3.447-2.866
						c1.137-0.967,2.298-1.911,3.39-2.935l3.321-3.026l3.219-3.117c1.092-1.024,2.127-2.116,3.173-3.185
						c1.047-1.069,2.104-2.127,3.105-3.242l3.026-3.31l2.946-3.389c1.934-2.286,3.856-4.584,5.676-6.961
						c1.865-2.343,3.64-4.766,5.392-7.189c1.752-2.434,3.435-4.914,5.107-7.405c1.649-2.502,3.264-5.027,4.834-7.587
						c1.547-2.571,3.083-5.153,4.527-7.78c1.456-2.616,2.855-5.278,4.197-7.962c1.331-2.696,2.616-5.403,3.776-8.178
						C346.001,286.604,344.784,289.357,343.51,292.075z"/>
					<path style="fill:#E82438;" d="M372.389,159.187l-0.262-3.287l-3.105-1.115c-6.859-2.411-13.615-4.63-20.178-6.631
						l-1.433-13.229l-6.313,21.509l0.682,0.205c6.938,2.036,13.877,4.254,20.645,6.609c0.284,7.837,0.444,27.731-3.447,52.823
						l-0.137,0.808h10.294l0.091-0.591C374.198,183.71,372.469,160.176,372.389,159.187z M370.399,185.28
						c-0.137,2.264-0.25,4.527-0.455,6.79c-0.182,2.264-0.409,4.527-0.66,6.791l-0.432,3.378c-0.137,1.126-0.341,2.241-0.523,3.367
						c-0.341,2.241-0.785,4.47-1.251,6.7c0.102-1.137,0.182-2.264,0.307-3.39c0.125-1.126,0.193-2.264,0.284-3.39
						c0.182-2.252,0.296-4.516,0.455-6.768c0.091-2.264,0.262-4.516,0.319-6.779c0.102-2.252,0.182-4.516,0.25-6.779l0.171-6.779
						l0.102-6.779c0.023-4.345,0.057-8.713,0-13.058c-3.117-1.16-6.256-2.343-9.361-3.56l-4.902-1.945
						c-1.626-0.648-3.264-1.308-4.88-1.991c1.695,0.478,3.378,0.978,5.062,1.49l5.039,1.536c3.367,1.046,6.711,2.138,10.044,3.23
						l0.489,0.148l0.023,0.535c0.114,2.286,0.182,4.55,0.228,6.813c0.057,2.275,0.057,4.55,0.057,6.813
						C370.763,176.192,370.615,180.742,370.399,185.28z"/>
					<path style="fill:#EF2138;" d="M158.208,156.639l0.682-0.205l-6.279-21.509l-1.456,13.217
						c-6.722,2.059-13.49,4.277-20.19,6.643l-3.105,1.115l-0.25,3.276c-0.023,0.239-1.888,24.012,3.151,57.1l0.091,0.603h10.317
						l-0.125-0.808c-3.913-25.126-3.765-44.997-3.481-52.823C144.411,160.87,151.361,158.652,158.208,156.639z M132.342,171.642
						l0.102,6.779l0.171,6.779c0.068,2.264,0.148,4.527,0.25,6.779c0.057,2.264,0.227,4.516,0.318,6.779
						c0.159,2.252,0.284,4.516,0.455,6.768c0.091,1.126,0.159,2.264,0.284,3.39c0.125,1.126,0.205,2.252,0.307,3.39
						c-0.466-2.229-0.91-4.459-1.251-6.7c-0.171-1.126-0.387-2.241-0.523-3.367l-0.432-3.378c-0.239-2.264-0.478-4.527-0.66-6.791
						c-0.193-2.263-0.319-4.527-0.455-6.79c-0.216-4.538-0.364-9.088-0.364-13.627c0-2.264,0-4.538,0.057-6.813
						c0.045-2.263,0.114-4.527,0.227-6.813l0.023-0.535l0.489-0.148c3.333-1.092,6.677-2.184,10.044-3.23l5.039-1.536
						c1.683-0.512,3.367-1.012,5.062-1.49c-1.615,0.682-3.242,1.342-4.88,1.991l-4.902,1.945c-3.105,1.217-6.245,2.4-9.361,3.56
						C132.286,162.929,132.32,167.297,132.342,171.642z"/>
					<polygon style="fill:#EF2138;" points="139.046,209.677 362.826,209.677 362.004,216.88 138.224,216.88 					"/>
				</g>
			</g>
			<g>
				<polygon style="fill:#EF2138;" points="250.114,330.438 253.834,337.975 262.151,339.183 256.133,345.05 257.553,353.334 
					250.114,349.423 242.674,353.334 244.095,345.05 238.077,339.183 246.394,337.975 				"/>
				<polygon style="fill:#EF2138;" points="218.854,325.516 221.14,330.148 226.251,330.891 222.552,334.496 223.425,339.586 
					218.854,337.182 214.283,339.586 215.156,334.496 211.457,330.891 216.568,330.148 				"/>
				<polygon style="fill:#EF2138;" points="281.374,325.516 283.66,330.148 288.771,330.891 285.072,334.496 285.945,339.586 
					281.374,337.182 276.802,339.586 277.676,334.496 273.977,330.891 279.088,330.148 				"/>
			</g>
		</g>
		<g>
			<text transform="matrix(1 0 0 1 129.0762 269.9378)" style="fill:#EF2138; font-family:'Poppins-Black'; font-size:59.0712px;">FITNESS</text>
			<text transform="matrix(1 0 0 1 199.0068 314.9261)" style="fill:#EF2138; font-family:'Poppins-Bold'; font-size:36.0324px;">LOGO</text>
		</g>
	</g>
</g>
<g id="DESIGNED_BY_FREEPIK">
	<g>
		<g id="XMLID_319_">
			<g id="XMLID_338_">
				<path id="XMLID_346_" style="fill:#1D262D;" d="M260.104,471.703c-0.432,0.443-0.803,0.931-1.108,1.453l-0.465-0.241
					c-0.067-0.298-0.349-0.503-0.659-0.466c-0.331,0.039-0.568,0.339-0.529,0.67c0.039,0.331,0.339,0.568,0.67,0.529
					c0.066-0.008,0.127-0.026,0.184-0.052l0.451,0.234c-0.251,0.554-0.433,1.139-0.539,1.744l0.747,0.132
					c0.23-1.306,0.85-2.507,1.792-3.473L260.104,471.703z"/>
				<path id="XMLID_345_" style="fill:#1D262D;" d="M265.592,469.401c-0.171,0-0.341,0.006-0.51,0.017l-0.074-0.626
					c0.188-0.149,0.296-0.389,0.266-0.645c-0.046-0.393-0.402-0.674-0.795-0.628c-0.393,0.046-0.674,0.402-0.628,0.795
					c0.03,0.254,0.189,0.461,0.404,0.564l0.074,0.624c-0.714,0.116-1.403,0.332-2.06,0.646l0.327,0.684
					c0.934-0.447,1.942-0.673,2.995-0.673c0.496,0,0.993,0.053,1.475,0.158l0.161-0.741
					C266.692,469.459,266.142,469.401,265.592,469.401z"/>
				<path id="XMLID_344_" style="fill:#1D262D;" d="M272.194,471.948c0.331-0.04,0.566-0.341,0.526-0.672
					c-0.04-0.331-0.341-0.566-0.672-0.526c-0.309,0.038-0.535,0.304-0.53,0.609l-0.416,0.363c-0.418-0.43-0.889-0.813-1.408-1.139
					l-0.404,0.641c1.134,0.715,2.021,1.726,2.563,2.925l0.69-0.313c-0.251-0.554-0.567-1.072-0.942-1.545l0.402-0.351
					C272.065,471.953,272.129,471.956,272.194,471.948z"/>
				<path id="XMLID_343_" style="fill:#1D262D;" d="M265.044,479.609c-0.386,0.023-0.775,0.035-1.157,0.035
					c-0.88,0-1.733-0.061-2.478-0.179c-0.39-0.062-0.846-0.155-1.27-0.292c1.046,1.861,3.069,3.125,5.388,3.125
					c2.855,0,5.262-1.916,5.95-4.504c-0.682,0.449-1.505,0.825-2.459,1.123C267.839,479.284,266.463,479.524,265.044,479.609z"/>
				<path id="XMLID_339_" style="fill:#1D262D;" d="M265.592,470.917c-3.352,0-6.08,2.666-6.08,5.944
					c0,0.426,0.046,0.849,0.137,1.261c0.673,0.483,2.706,0.89,5.348,0.731c2.879-0.173,5.297-0.957,6.672-2.158
					c-0.006-0.195-0.021-0.39-0.045-0.582C271.244,473.15,268.65,470.917,265.592,470.917z M263.432,477.431
					c-1.02,0-1.85-0.83-1.85-1.85c0-1.02,0.83-1.85,1.85-1.85c1.02,0,1.85,0.83,1.85,1.85
					C265.282,476.602,264.452,477.431,263.432,477.431z M268.17,476.523c-0.75,0-1.36-0.61-1.36-1.36s0.61-1.361,1.36-1.361
					c0.75,0,1.361,0.61,1.361,1.361S268.92,476.523,268.17,476.523z"/>
			</g>
			<path id="XMLID_336_" style="fill:#1D262D;" d="M281.595,472.784c-0.295-0.116-0.805-0.309-1.382-0.237
				c-0.551,0.068-0.844,0.34-0.844,1.007v0.866h2.228v1.717h-2.228v5.455h-1.932v-5.455h-1.34v-1.717h1.34v-0.888
				c0-1.68,0.896-2.783,2.568-2.783c0.643,0,1.157,0.122,1.59,0.308L281.595,472.784z"/>
			<path id="XMLID_334_" style="fill:#1D262D;" d="M286.298,476.116c-0.177-0.03-0.358-0.046-0.526-0.046
				c-0.896,0-1.51,0.548-1.51,1.613v3.908h-1.932v-7.172h1.873v0.785c0.451-0.674,1.14-0.977,2.021-0.977
				c0.414,0,0.848,0.128,1.094,0.337L286.298,476.116z"/>
			<path id="XMLID_331_" style="fill:#1D262D;" d="M293.965,477.994c0,0.222-0.015,0.489-0.037,0.651h-5.085
				c0.207,1.036,0.933,1.488,1.843,1.488c0.622,0,1.295-0.252,1.813-0.688l1.133,1.243c-0.814,0.748-1.85,1.088-3.057,1.088
				c-2.198,0-3.723-1.495-3.723-3.753c0-2.257,1.48-3.797,3.627-3.797C292.544,474.227,293.958,475.759,293.965,477.994z
				 M288.851,477.328h3.175c-0.177-0.918-0.733-1.436-1.562-1.436C289.554,475.892,289.021,476.44,288.851,477.328z"/>
			<path id="XMLID_328_" style="fill:#1D262D;" d="M301.618,477.994c0,0.222-0.015,0.489-0.037,0.651h-5.085
				c0.207,1.036,0.933,1.488,1.843,1.488c0.622,0,1.295-0.252,1.814-0.688l1.132,1.243c-0.814,0.748-1.85,1.088-3.057,1.088
				c-2.198,0-3.723-1.495-3.723-3.753c0-2.257,1.48-3.797,3.627-3.797C300.197,474.227,301.611,475.759,301.618,477.994z
				 M296.504,477.328h3.175c-0.178-0.918-0.733-1.436-1.562-1.436C297.207,475.892,296.674,476.44,296.504,477.328z"/>
			<path id="XMLID_325_" style="fill:#1D262D;" d="M309.964,478.001c0,2.154-1.495,3.775-3.471,3.775
				c-0.962,0-1.643-0.378-2.109-0.933v3.708h-1.924v-10.133h1.887v0.792c0.466-0.585,1.155-0.984,2.139-0.984
				C308.469,474.227,309.964,475.848,309.964,478.001z M304.287,478.001c0,1.132,0.748,1.976,1.843,1.976
				c1.14,0,1.85-0.881,1.85-1.976c0-1.095-0.71-1.976-1.85-1.976C305.035,476.025,304.287,476.869,304.287,478.001z"/>
			<path id="XMLID_322_" style="fill:#1D262D;" d="M313.068,472.073c0,0.696-0.54,1.229-1.236,1.229
				c-0.696,0-1.229-0.533-1.229-1.229c0-0.696,0.533-1.243,1.229-1.243C312.527,470.829,313.068,471.377,313.068,472.073z
				 M312.809,481.591h-1.932v-7.172h1.932V481.591z"/>
			<path id="XMLID_320_" style="fill:#1D262D;" d="M316.032,476.973l2.701-2.554h2.368l-3.479,3.375l3.501,3.797h-2.376
				l-2.716-2.901v2.901H314.1v-10.658h1.932V476.973z"/>
		</g>
		<g>
			<path style="fill:#1D262D;" d="M184.412,481.526v-1.055c-0.527,0.718-1.391,1.23-2.387,1.23c-1.846,0-3.149-1.406-3.149-3.706
				c0-2.256,1.289-3.721,3.149-3.721c0.952,0,1.816,0.469,2.387,1.245v-3.765h1.099v9.77H184.412z M184.412,479.607v-3.208
				c-0.395-0.615-1.245-1.143-2.124-1.143c-1.421,0-2.27,1.172-2.27,2.739c0,1.567,0.85,2.724,2.27,2.724
				C183.168,480.72,184.017,480.223,184.412,479.607z"/>
			<path style="fill:#1D262D;" d="M186.932,477.981c0-2.051,1.465-3.706,3.486-3.706c2.139,0,3.398,1.67,3.398,3.794v0.279h-5.727
				c0.088,1.333,1.025,2.446,2.549,2.446c0.805,0,1.626-0.322,2.182-0.893l0.527,0.718c-0.703,0.703-1.655,1.084-2.812,1.084
				C188.44,481.702,186.932,480.193,186.932,477.981z M190.403,475.184c-1.509,0-2.256,1.274-2.314,2.358h4.643
				C192.718,476.487,192.015,475.184,190.403,475.184z"/>
			<path style="fill:#1D262D;" d="M194.607,480.589l0.571-0.791c0.469,0.542,1.362,1.011,2.329,1.011c1.084,0,1.67-0.513,1.67-1.216
				c0-1.714-4.38-0.659-4.38-3.281c0-1.098,0.952-2.036,2.636-2.036c1.201,0,2.051,0.454,2.622,1.026l-0.513,0.762
				c-0.424-0.513-1.201-0.894-2.109-0.894c-0.967,0-1.567,0.483-1.567,1.113c0,1.552,4.38,0.527,4.38,3.281
				c0,1.187-0.952,2.139-2.783,2.139C196.306,481.702,195.325,481.35,194.607,480.589z"/>
			<path style="fill:#1D262D;" d="M201.477,472.708c0-0.41,0.337-0.747,0.732-0.747c0.41,0,0.747,0.337,0.747,0.747
				c0,0.41-0.337,0.732-0.747,0.732C201.814,473.44,201.477,473.118,201.477,472.708z M201.667,481.526v-7.075h1.099v7.075H201.667z
				"/>
			<path style="fill:#1D262D;" d="M204.582,483.342l0.556-0.82c0.586,0.703,1.289,0.967,2.3,0.967c1.172,0,2.27-0.571,2.27-2.124
				v-1.011c-0.513,0.718-1.377,1.26-2.373,1.26c-1.845,0-3.149-1.377-3.149-3.662c0-2.27,1.289-3.677,3.149-3.677
				c0.952,0,1.802,0.469,2.373,1.245v-1.069h1.098v6.87c0,2.344-1.641,3.076-3.369,3.076
				C206.237,484.397,205.417,484.163,204.582,483.342z M209.709,479.49v-3.091c-0.381-0.615-1.23-1.143-2.109-1.143
				c-1.421,0-2.27,1.128-2.27,2.695c0,1.553,0.849,2.695,2.27,2.695C208.478,480.647,209.328,480.105,209.709,479.49z"/>
			<path style="fill:#1D262D;" d="M217.413,481.526v-4.629c0-1.245-0.63-1.64-1.582-1.64c-0.865,0-1.685,0.527-2.095,1.099v5.17
				h-1.099v-7.075h1.099v1.025c0.498-0.586,1.464-1.201,2.519-1.201c1.48,0,2.256,0.747,2.256,2.285v4.966H217.413z"/>
			<path style="fill:#1D262D;" d="M219.932,477.981c0-2.051,1.465-3.706,3.486-3.706c2.139,0,3.398,1.67,3.398,3.794v0.279h-5.727
				c0.088,1.333,1.025,2.446,2.549,2.446c0.806,0,1.626-0.322,2.183-0.893l0.527,0.718c-0.703,0.703-1.655,1.084-2.812,1.084
				C221.441,481.702,219.932,480.193,219.932,477.981z M223.404,475.184c-1.509,0-2.256,1.274-2.314,2.358h4.643
				C225.718,476.487,225.015,475.184,223.404,475.184z"/>
			<path style="fill:#1D262D;" d="M233.35,481.526v-1.055c-0.527,0.718-1.392,1.23-2.388,1.23c-1.846,0-3.149-1.406-3.149-3.706
				c0-2.256,1.289-3.721,3.149-3.721c0.952,0,1.817,0.469,2.388,1.245v-3.765h1.098v9.77H233.35z M233.35,479.607v-3.208
				c-0.396-0.615-1.245-1.143-2.124-1.143c-1.421,0-2.27,1.172-2.27,2.739c0,1.567,0.849,2.724,2.27,2.724
				C232.105,480.72,232.954,480.223,233.35,479.607z"/>
			<path style="fill:#1D262D;" d="M239.692,481.526v-9.77h1.098v3.765c0.572-0.776,1.421-1.245,2.388-1.245
				c1.845,0,3.149,1.465,3.149,3.721c0,2.299-1.304,3.706-3.149,3.706c-0.996,0-1.86-0.513-2.388-1.23v1.055H239.692z M242.9,480.72
				c1.436,0,2.285-1.157,2.285-2.724c0-1.568-0.85-2.739-2.285-2.739c-0.864,0-1.728,0.527-2.109,1.143v3.208
				C241.171,480.223,242.036,480.72,242.9,480.72z"/>
			<path style="fill:#1D262D;" d="M247.528,483.298c0.161,0.073,0.425,0.117,0.601,0.117c0.483,0,0.805-0.161,1.055-0.747
				l0.469-1.069l-2.959-7.148h1.187l2.358,5.801l2.344-5.801h1.201l-3.545,8.51c-0.425,1.025-1.143,1.421-2.08,1.435
				c-0.234,0-0.601-0.044-0.805-0.103L247.528,483.298z"/>
		</g>
	</g>
</g>
</svg>
